<svg
  width="34.000000pt" height="34.000000pt"
  viewBox="0 0 374 448" xmlns="http://www.w3.org/2000/svg">
  <title>Group</title><g fill="none" fill-rule="evenodd" opacity=".9"><path fill="#BDC831" d="M186.991 231.001l.003.001.524-.302 61.774-35.543-62.307-36.259v.001l-.002-.001h-.001l-62.314 35.834 62.314 36.264z"/><path fill="#A1A938" d="M186.982 303.099v-.002l.003.002v-72.093l-62.322-36.269v.001l-.002-.001v72.093l.029.017z"/><path fill="#999B38" d="M249.306 195.166l-61.79 35.534-.525.301-.008.005v72.093l.013.007.002.001 62.31-35.833h.001v-72.107l-.003.002z"/><path fill="#CD2B66" d="M249.318 267.264h.001l.003.001.524-.302 61.774-35.543-62.307-36.259v.001l-.002-.001h-.001l-62.314 35.834 62.314 36.265z"/><path fill="#A31D4D" d="M249.31 339.362v-.001l.003.001v-72.093l-62.322-36.268-.002-.001v72.093l.029.017z"/><path fill="#B72555" d="M311.634 231.429l-61.79 35.534-.526.301-.007.005v72.093l.013.007.002.001 62.31-35.833.001.001V231.43l-.003.002z"/><path fill="#CD2B66" d="M311.642 303.538h.001l.003.001.524-.302 61.774-35.543-62.307-36.259v.001l-.002-.001h-.001l-62.314 35.834 62.314 36.265z"/><path fill="#A31D4D" d="M311.634 375.636v-.001l.003.001v-72.093l-62.322-36.268-.002-.001v72.093l.029.017z"/><path fill="#B72555" d="M373.958 267.703l-61.79 35.534-.526.301-.007.005v72.093l.013.007.002.001 62.31-35.833h.001v-72.107l-.003.002z"/><path fill="#C9D92D" d="M124.68 266.833l.001-.001.002.002.525-.302 61.773-35.543-62.306-36.26v.001h-.001l-.001-.001h-.001l-62.314 35.835 62.314 36.264z"/><path fill="#C2D02F" d="M124.672 338.93v-.001l.003.002v-72.093l-62.323-36.269v.001l-.002-.001v72.093l.029.017z"/><path fill="#B9BE33" d="M186.995 230.998l-61.789 35.533-.526.302-.007.005v72.092l.012.008.001-.001.002.001 62.31-35.833v.001-72.107l-.003.002z"/><path fill="#CD2B66" d="M187.008 303.096l.001-.001.002.002.525-.302 61.773-35.543-62.306-36.259h-.004l-62.313 35.834 62.313 36.264z"/><path fill="#A31D4D" d="M186.999 375.194v-.002l.003.002v-72.093l-62.322-36.269v.001l-.002-.001v72.093l.029.017z"/><path fill="#B72555" d="M249.323 267.261l-61.789 35.534-.526.301-.007.005v72.093l.012.007h.002l62.311-35.832v-72.107l-.003.002z"/><path fill="#33B4D7" d="M249.332 339.37l.001-.001.002.002.525-.302 61.773-35.543-62.306-36.259h-.004l-62.313 35.834 62.313 36.264z"/><path fill="#209AC5" d="M249.323 411.468v-.002l.003.002v-72.093l-62.322-36.269v.001l-.002-.001v72.093l.029.017z"/><path fill="#158DAF" d="M311.647 303.535l-61.789 35.533-.526.302-.007.005v72.093l.012.007h.002l62.311-35.832v-72.107l-.003.002z"/><path fill="#95D6E2" d="M62.369 302.667l.001-.001.002.002.525-.302 61.773-35.543-62.306-36.26-.001.001-.001-.001h-.002L.047 266.398l62.313 36.264z"/><path fill="#74CCDD" d="M62.36 374.765v-.002l.003.002v-72.093L.041 266.403v.001l-.002-.001v72.093l.029.017z"/><path fill="#3CAEBB" d="M124.684 266.832l-61.789 35.533-.526.302-.007.005v72.093l.012.007h.002l62.311-35.832v-72.107l-.003.002z"/><path fill="#95D6E2" d="M124.697 338.93h.001l.002.001.525-.302 61.773-35.543-62.307-36.259v.001l-.002-.001h-.001l-62.313 35.834 62.313 36.264z"/><path fill="#74CCDD" d="M124.688 411.028v-.001l.003.001v-72.093l-62.322-36.269v.001l-.002-.001v72.093l.029.017z"/><path fill="#3CAEBB" d="M187.012 303.095l-61.79 35.534-.525.301-.008.005v72.093l.013.007.002.001 62.31-35.833h.001v-72.107l-.003.002z"/><path fill="#33B4D7" d="M187.021 375.204h.001l.002.001.525-.302 61.773-35.543-62.306-36.259h-.001v.001l-.002-.001h-.001l-62.313 35.834 62.313 36.264z"/><path fill="#209AC5" d="M187.012 447.302v-.002l.003.002v-72.093l-62.322-36.269v.001l-.002-.001v72.093l.029.017z"/><path fill="#158DAF" d="M249.336 339.369l-61.789 35.534-.526.301-.008.005v72.093l.013.007.002.001 62.311-35.833V339.37l-.003.002z"/><path fill="#BDC831" d="M187.02 151.898l.001-.001.002.002.525-.302 61.788-35.518-62.292-36.285v.001h-.001l-.001-.001h-.001l-62.329 35.809 62.299 36.29z"/><path fill="#A1A938" d="M186.982 223.995v-.001l.003.002.029-72.093v-.001l-62.307-36.293-.002-.001-.029 72.093.029.017z"/><path fill="#999B38" d="M249.35 116.088l-61.804 35.508-.526.302-.007.004-.03 72.093.013.007.002.001 62.325-35.808.001.001v-.009l.029-72.098-.003.002z"/><path fill="#EF549A" d="M249.333 188.186h.001l.002.001.525-.302 61.788-35.518-62.292-36.284h-.003l-62.328 35.809 62.298 36.289z"/><path fill="#D01B68" d="M249.295 260.284v-.002l.003.002.03-72.092v-.001l-62.308-36.294v.001l-.002-.002-.029 72.094.029.017z"/><path fill="#EC1069" d="M311.663 152.376l-61.804 35.509-.526.301-.007.005-.03 72.093.013.007h.002l62.325-35.807.001.001v-.009l.029-72.099-.003.002z"/><path fill="#A25AA4" d="M311.642 224.485h.001l.003.001.524-.301 61.788-35.519-62.292-36.284v.001l-.002-.001h-.001l-62.328 35.809 62.299 36.29z"/><path fill="#772A85" d="M311.604 296.583v-.001l.004.001.029-72.092v-.001l-62.308-36.294v.001l-.002-.001-.029 72.093.029.017z"/><path fill="#8E3E96" d="M373.972 188.676l-61.804 35.508-.526.301-.007.005-.029 72.093.012.007h.001l.002.001 62.324-35.808.001.001v-.009l.029-72.098-.003.001z"/><path fill="#C9D92D" d="M124.695 187.704l.001-.001.002.002.525-.302 61.788-35.518-62.292-36.285v.001h-.001l-.001-.001h-.001l-62.329 35.81 62.299 36.289z"/><path fill="#C2D02F" d="M124.657 259.802v-.002l.003.002.029-72.093-62.307-36.294-.002-.001-.029 72.094.029.017z"/><path fill="#B9BE33" d="M187.024 151.894l-61.803 35.509-.526.301-.007.005-.03 72.093.013.007v-.001l.002.001 62.325-35.807v.001-.009l.03-72.099-.004.002z"/><path fill="#F6AF1A" d="M187.008 223.993l.001-.001.002.001.525-.301 61.788-35.518-62.292-36.285v.001h-.001l-.001-.001h-.001L124.7 187.698l62.299 36.29z"/><path fill="#F29020" d="M186.97 296.09v-.001l.003.002.029-72.093v-.001l-62.307-36.294v.001l-.002-.001-.029 72.093.029.017z"/><path fill="#FAA220" d="M249.338 188.183l-61.804 35.508-.526.302-.007.004-.03 72.093.013.007.002.001 62.325-35.808.001.001v-.009l.029-72.098-.003.002z"/><path fill="#A25AA4" d="M249.317 260.292l.001-.001.002.002.525-.302 61.788-35.518-62.292-36.285v.001l-.002-.001h-.001l-62.328 35.81 62.299 36.289z"/><path fill="#772A85" d="M249.279 332.389v-.001l.003.002.03-72.093-62.308-36.294-.002-.001-.029 72.093.029.018z"/><path fill="#8E3E96" d="M311.647 224.482l-61.804 35.508-.526.302-.007.005-.029 72.092.012.008.001-.001.001.001 62.325-35.807h.001v-.008l.029-72.099-.003.002z"/><path fill="#F5DD07" d="M62.369 223.513l.001-.001.002.002.525-.302 61.788-35.518-62.292-36.285v.001l-.002-.001h-.001L.062 187.219l62.299 36.289z"/><path fill="#F8BB1C" d="M62.331 295.61v-.001l.003.002.03-72.093L.056 187.224l-.002-.001-.029 72.093.029.018z"/><path fill="#E9AE21" d="M124.699 187.703l-61.804 35.508-.526.302-.007.005-.03 72.092.013.008v-.001l.002.001 62.325-35.807h.001v-.009l.029-72.098-.003.002z"/><path fill="#F6AF1A" d="M124.682 259.801h.001l.002.001.525-.301 61.788-35.519-62.292-36.284v.001l-.002-.001h-.001l-62.328 35.809 62.299 36.289z"/><path fill="#F29020" d="M124.644 331.899v-.001l.003.001.03-72.092v-.001l-62.308-36.294v.001l-.002-.001-.029 72.093.029.017z"/><path fill="#FAA220" d="M187.012 223.992L125.208 259.5l-.526.301-.007.005-.029 72.093.012.007h.001l.001.001 62.325-35.808.001.001v-.009l.029-72.098-.003.001z"/><path fill="#32848C" d="M186.991 296.101l.001-.001.003.002.524-.302 61.788-35.518-62.291-36.285-.001.001-.002-.001h-.001l-62.328 35.809 62.299 36.29z"/><path fill="#23636D" d="M186.954 368.198v-.001l.003.002.029-72.093v-.001l-62.308-36.293-.002-.001-.029 72.093.029.017z"/><path fill="#1D4B57" d="M249.321 260.291l-61.804 35.508-.526.302-.007.004-.029 72.093.012.007h.001l.002.001 62.324-35.808.001.001v-.009l.029-72.098-.003.002z"/><path fill="#BDC831" d="M186.991 72.794v-.001l.003.002.524-.302 61.774-35.543L186.985.69v.001l-.002-.001h-.001l-62.314 35.835 62.314 36.264z"/><path fill="#A1A938" d="M186.982 144.892v-.002l.003.002V72.799L124.663 36.53v.001l-.002-.001v72.093l.029.017z"/><path fill="#999B38" d="M249.306 36.959l-61.79 35.533-.525.302-.008.005v72.093l.013.007v-.001l.002.001 62.31-35.832h.001V36.96l-.003.002z"/><path fill="#EF549A" d="M249.318 109.057h.001l.003.001.524-.302 61.774-35.543-62.307-36.259v.001l-.002-.001h-.001l-62.314 35.834 62.314 36.264z"/><path fill="#D01B68" d="M249.31 181.155v-.001l.003.001v-72.093l-62.322-36.269v.001l-.002-.001v72.093l.029.017z"/><path fill="#EC1069" d="M311.634 73.222l-61.79 35.534-.526.301-.007.005v72.093l.013.007.002.001 62.31-35.833h.001V73.223l-.003.002z"/><path fill="#A25AA4" d="M311.642 145.331h.001l.003.001.524-.302 61.774-35.543-62.307-36.259h-.003l-62.314 35.834 62.314 36.264z"/><path fill="#772A85" d="M311.634 217.429v-.002l.003.002v-72.093l-62.322-36.269v.001l-.002-.001v72.093l.029.017z"/><path fill="#8E3E96" d="M373.958 109.496l-61.79 35.534-.526.301-.007.005v72.093l.013.007.002.001 62.31-35.833h.001v-72.107l-.003.002z"/><path fill="#C9D92D" d="M124.68 108.626l.001-.001.002.002.525-.302 61.773-35.544-62.306-36.259v.001h-.001l-.001-.001h-.001L62.358 72.357l62.314 36.264z"/><path fill="#C2D02F" d="M124.672 180.723v-.001l.003.002v-72.093L62.352 72.362v.001l-.002-.002v72.094l.029.017z"/><path fill="#B9BE33" d="M186.995 72.791l-61.789 35.533-.526.302-.007.005v72.092l.012.008.001-.001.002.001 62.31-35.833v.001-72.107l-.003.002z"/><path fill="#C9D92D" d="M187.008 144.889l.001-.001.002.002.525-.302 61.773-35.543-62.306-36.26-.001.001-.001-.001h-.002l-62.313 35.835 62.313 36.264z"/><path fill="#C2D02F" d="M186.999 216.986v-.001l.003.002v-72.093l-62.322-36.269v.001l-.002-.001v72.093l.029.017z"/><path fill="#B9BE33" d="M249.323 109.054l-61.789 35.533-.526.302-.007.005v72.092l.012.008.001-.001.001.001 62.311-35.833v.001-72.107l-.003.002z"/><path fill="#843792" d="M249.332 181.163l.001-.001.002.002.523-.305 61.601-35.842-62.482-35.957v.001l-.002-.001h-.001l-62.139 36.136 62.488 35.962z"/><path fill="#662977" d="M249.673 253.26v-.002l.003.002-.35-72.092-62.497-35.966-.002-.001.35 72.092.029.017z"/><path fill="#4E205B" d="M311.473 145.026l-61.617 35.833-.524.304-.007.005.349 72.092.012.007.001-.001.002.001 62.136-36.134v.001-.009l-.349-72.098-.003.002z"/><path fill="#F5DD07" d="M62.369 144.46l.001-.001.002.002.525-.302 61.773-35.543-62.306-36.26-.001.001-.001-.001h-.002L.047 108.191l62.313 36.264z"/><path fill="#F8BB1C" d="M62.36 216.557v-.001l.003.002v-72.093L.041 108.196v.001l-.002-.001v72.093l.029.017z"/><path fill="#E9AE21" d="M124.684 108.625l-61.789 35.533-.526.302-.007.005v72.092l.012.008.001-.001.001.001 62.311-35.833v.001-72.107l-.003.002z"/><path fill="#F6AF1A" d="M124.697 180.723l.001-.001.002.002.525-.302 61.773-35.543-62.307-36.259h-.003l-62.313 35.834 62.313 36.264z"/><path fill="#F29020" d="M124.688 252.821v-.002l.003.002v-72.093l-62.322-36.269v.001l-.002-.001v72.093l.029.017z"/><path fill="#FAA220" d="M187.012 144.888l-61.79 35.533-.525.302-.008.005v72.093l.013.007h.002l62.31-35.832h.001v-72.107l-.003.002z"/><path fill="#F6AF1A" d="M187.021 216.997l.001-.001.002.002.525-.302 61.773-35.543-62.306-36.26-.001.001-.002-.001h-.001l-62.313 35.835 62.313 36.264z"/><path fill="#F29020" d="M187.012 289.095v-.002l.003.002v-72.093l-62.322-36.269v.001l-.002-.001v72.093l.029.017z"/><path fill="#FAA220" d="M249.336 181.162l-61.789 35.533-.526.302-.008.005v72.093l.013.007h.002l62.311-35.832v-72.107l-.003.002z"/></g></svg>